<svg width="25" height="25" viewBox="0 0 25 25" fill="none" xmlns="http://www.w3.org/2000/svg">
<path d="M4.66781 17.5272L3.46425 10.3476C3.28227 9.26209 3.19129 8.71933 3.48265 8.36357C3.77402 8.00781 4.30953 8.00781 5.38056 8.00781H20.2093C21.2803 8.00781 21.8158 8.00781 22.1072 8.36357C22.3985 8.71933 22.3075 9.26209 22.1256 10.3476L20.922 17.5272C20.5231 19.9069 20.3236 21.0967 19.5092 21.8023C18.6949 22.5078 17.5209 22.5078 15.1731 22.5078H10.4167C8.06888 22.5078 6.89495 22.5078 6.08057 21.8023C5.26619 21.0967 5.06673 19.9069 4.66781 17.5272Z" stroke="white" stroke-width="1.5"/>
<path d="M18.2949 8.00781C18.2949 4.97024 15.8325 2.50781 12.7949 2.50781C9.75735 2.50781 7.29492 4.97024 7.29492 8.00781" stroke="white" stroke-width="1.5"/>
</svg>
