<svg width="40" height="40" viewBox="0 0 40 40" fill="none" xmlns="http://www.w3.org/2000/svg">
<circle cx="20" cy="20" r="20" fill="#FEE2E2"/>
<path fill-rule="evenodd" clip-rule="evenodd" d="M16.1114 10H24.7814C28.1714 10 30.4414 12.38 30.4414 15.92V24.091C30.4414 27.621 28.1714 30 24.7814 30H16.1114C12.7214 30 10.4414 27.621 10.4414 24.091V15.92C10.4414 12.38 12.7214 10 16.1114 10ZM23.4514 23C23.7914 22.661 23.7914 22.111 23.4514 21.771L21.6714 19.991L23.4514 18.21C23.7914 17.871 23.7914 17.311 23.4514 16.971C23.1114 16.63 22.5614 16.63 22.2114 16.971L20.4414 18.75L18.6614 16.971C18.3114 16.63 17.7614 16.63 17.4214 16.971C17.0814 17.311 17.0814 17.871 17.4214 18.21L19.2014 19.991L17.4214 21.761C17.0814 22.111 17.0814 22.661 17.4214 23C17.5914 23.17 17.8214 23.261 18.0414 23.261C18.2714 23.261 18.4914 23.17 18.6614 23L20.4414 21.231L22.2214 23C22.3914 23.181 22.6114 23.261 22.8314 23.261C23.0614 23.261 23.2814 23.17 23.4514 23Z" fill="#EF4444"/>
</svg>
