<svg width="40" height="40" viewBox="0 0 40 40" fill="none" xmlns="http://www.w3.org/2000/svg">
<circle cx="20" cy="20" r="20" fill="#DCFCE7"/>
<path fill-rule="evenodd" clip-rule="evenodd" d="M16.1114 10H24.7814C28.1714 10 30.4414 12.38 30.4414 15.92V24.091C30.4414 27.62 28.1714 30 24.7814 30H16.1114C12.7214 30 10.4414 27.62 10.4414 24.091V15.92C10.4414 12.38 12.7214 10 16.1114 10ZM19.8714 22.99L24.6214 18.24C24.9614 17.9 24.9614 17.35 24.6214 17C24.2814 16.66 23.7214 16.66 23.3814 17L19.2514 21.13L17.5014 19.38C17.1614 19.04 16.6014 19.04 16.2614 19.38C15.9214 19.72 15.9214 20.27 16.2614 20.62L18.6414 22.99C18.8114 23.16 19.0314 23.24 19.2514 23.24C19.4814 23.24 19.7014 23.16 19.8714 22.99Z" fill="#16A34A"/>
</svg>
