<svg width="25" height="24" viewBox="0 0 25 24" fill="none" xmlns="http://www.w3.org/2000/svg">
<path d="M7.02539 5.99219C5.80475 5.99585 5.12922 6.02505 4.57412 6.25804C3.79659 6.58439 3.1634 7.18722 2.7935 7.95328C2.49157 8.57857 2.44216 9.37969 2.34335 10.9819L2.18851 13.4926C1.94278 17.477 1.81991 19.4692 2.98908 20.7305C4.15824 21.9917 6.12791 21.9917 10.0673 21.9917H13.9835C17.9229 21.9917 19.8926 21.9917 21.0617 20.7305C22.2309 19.4692 22.108 17.477 21.8623 13.4926L21.7074 10.9819C21.6086 9.37969 21.5592 8.57857 21.2573 7.95328C20.8874 7.18722 20.2542 6.58439 19.4767 6.25804C18.9216 6.02505 18.246 5.99585 17.0254 5.99219" stroke="#475569" stroke-width="1.5" stroke-linecap="round"/>
<path d="M17.0254 6.99219L16.1396 4.77762C15.7574 3.82215 15.4248 2.73829 14.442 2.25174C13.9178 1.99219 13.287 1.99219 12.0254 1.99219C10.7638 1.99219 10.133 1.99219 9.60874 2.25174C8.62599 2.73829 8.2934 3.82215 7.91122 4.77762L7.02539 6.99219" stroke="#475569" stroke-width="1.5" stroke-linecap="round" stroke-linejoin="round"/>
<path d="M15.5254 13.9922C15.5254 15.9252 13.9584 17.4922 12.0254 17.4922C10.0924 17.4922 8.52539 15.9252 8.52539 13.9922C8.52539 12.0592 10.0924 10.4922 12.0254 10.4922C13.9584 10.4922 15.5254 12.0592 15.5254 13.9922Z" stroke="#475569" stroke-width="1.5"/>
<path d="M12.0254 5.99219H12.0344" stroke="#475569" stroke-width="2" stroke-linecap="round" stroke-linejoin="round"/>
</svg>
