<svg width="21" height="20" viewBox="0 0 21 20" fill="none" xmlns="http://www.w3.org/2000/svg">
<mask id="mask0_9116_2166" style="mask-type:luminance" maskUnits="userSpaceOnUse" x="1" y="1" width="18" height="17">
<path fill-rule="evenodd" clip-rule="evenodd" d="M1.84766 1.66016H18.0783V17.891H1.84766V1.66016Z" fill="white"/>
</mask>
<g mask="url(#mask0_9116_2166)">
<path fill-rule="evenodd" clip-rule="evenodd" d="M9.96349 2.91016C6.17766 2.91016 3.09766 5.98932 3.09766 9.77516C3.09766 13.561 6.17766 16.641 9.96349 16.641C13.7485 16.641 16.8285 13.561 16.8285 9.77516C16.8285 5.98932 13.7485 2.91016 9.96349 2.91016ZM9.96349 17.891C5.48849 17.891 1.84766 14.2502 1.84766 9.77516C1.84766 5.30016 5.48849 1.66016 9.96349 1.66016C14.4385 1.66016 18.0785 5.30016 18.0785 9.77516C18.0785 14.2502 14.4385 17.891 9.96349 17.891Z" fill="#64748B"/>
</g>
<mask id="mask1_9116_2166" style="mask-type:luminance" maskUnits="userSpaceOnUse" x="14" y="14" width="5" height="5">
<path fill-rule="evenodd" clip-rule="evenodd" d="M14.5469 14.75H18.7336V18.929H14.5469V14.75Z" fill="white"/>
</mask>
<g mask="url(#mask1_9116_2166)">
<path fill-rule="evenodd" clip-rule="evenodd" d="M18.1088 18.929C17.9496 18.929 17.7896 18.8681 17.6671 18.7465L14.7304 15.8181C14.4863 15.574 14.4854 15.1781 14.7296 14.934C14.9729 14.6881 15.3688 14.6898 15.6138 14.9323L18.5504 17.8615C18.7946 18.1056 18.7954 18.5006 18.5513 18.7448C18.4296 18.8681 18.2688 18.929 18.1088 18.929Z" fill="#64748B"/>
</g>
</svg>
