<svg width="40" height="40" viewBox="0 0 40 40" fill="none" xmlns="http://www.w3.org/2000/svg">
<circle cx="20" cy="20" r="20" fill="#FEF9C3"/>
<path fill-rule="evenodd" clip-rule="evenodd" d="M16.1114 10H24.7814C28.1714 10 30.4414 12.379 30.4414 15.919V24.089C30.4414 27.62 28.1714 30 24.7814 30H16.1114C12.7214 30 10.4414 27.62 10.4414 24.089V15.919C10.4414 12.379 12.7214 10 16.1114 10ZM24.0214 23.81C24.2714 23.81 24.5214 23.68 24.6614 23.44C24.8814 23.089 24.7614 22.629 24.4014 22.41L20.8414 20.29V15.669C20.8414 15.26 20.5114 14.919 20.0914 14.919C19.6814 14.919 19.3414 15.26 19.3414 15.669V20.72C19.3414 20.98 19.4814 21.23 19.7114 21.36L23.6314 23.7C23.7514 23.78 23.8914 23.81 24.0214 23.81Z" fill="#EAB308"/>
</svg>
