<svg width="53" height="55" viewBox="0 0 53 55" fill="none" xmlns="http://www.w3.org/2000/svg">
<g filter="url(#filter0_dd_9300_2209)">
<circle cx="26.0254" cy="18.5" r="16" fill="white"/>
</g>
<mask id="mask0_9300_2209" style="mask-type:luminance" maskUnits="userSpaceOnUse" x="19" y="12" width="15" height="14">
<path fill-rule="evenodd" clip-rule="evenodd" d="M19.3594 12.5H33.0077V25.5007H19.3594V12.5Z" fill="white"/>
</mask>
<g mask="url(#mask0_9300_2209)">
<path fill-rule="evenodd" clip-rule="evenodd" d="M20.5753 18.5821C21.51 21.4901 25.2027 23.8414 26.184 24.4234C27.1687 23.8354 30.888 21.4581 31.7927 18.5847C32.3867 16.7274 31.8353 14.3747 29.6447 13.6687C28.5833 13.3281 27.3453 13.5354 26.4907 14.1967C26.312 14.3341 26.064 14.3367 25.884 14.2007C24.9787 13.5201 23.796 13.3207 22.718 13.6687C20.5307 14.3741 19.9813 16.7267 20.5753 18.5821ZM26.1847 25.5007C26.102 25.5007 26.02 25.4807 25.9453 25.4401C25.7367 25.3261 20.8213 22.6167 19.6233 18.8874C19.6227 18.8874 19.6227 18.8867 19.6227 18.8867C18.8707 16.5387 19.708 13.5881 22.4113 12.7167C23.6807 12.3061 25.064 12.4867 26.1827 13.1927C27.2667 12.5074 28.7067 12.3181 29.9507 12.7167C32.6567 13.5894 33.4967 16.5394 32.7453 18.8867C31.586 22.5734 26.6347 25.3234 26.4247 25.4387C26.35 25.4801 26.2673 25.5007 26.1847 25.5007Z" fill="#737373"/>
</g>
<path fill-rule="evenodd" clip-rule="evenodd" d="M30.1292 17.5829C29.8712 17.5829 29.6525 17.3849 29.6312 17.1235C29.5872 16.5755 29.2205 16.1129 28.6985 15.9442C28.4352 15.8589 28.2912 15.5769 28.3758 15.3149C28.4618 15.0522 28.7412 14.9095 29.0052 14.9922C29.9138 15.2862 30.5505 16.0909 30.6285 17.0422C30.6505 17.3175 30.4458 17.5589 30.1705 17.5809C30.1565 17.5822 30.1432 17.5829 30.1292 17.5829Z" fill="#737373"/>
<defs>
<filter id="filter0_dd_9300_2209" x="0.0253906" y="0.5" width="52" height="54" filterUnits="userSpaceOnUse" color-interpolation-filters="sRGB">
<feFlood flood-opacity="0" result="BackgroundImageFix"/>
<feColorMatrix in="SourceAlpha" type="matrix" values="0 0 0 0 0 0 0 0 0 0 0 0 0 0 0 0 0 0 127 0" result="hardAlpha"/>
<feMorphology radius="4" operator="erode" in="SourceAlpha" result="effect1_dropShadow_9300_2209"/>
<feOffset dy="2"/>
<feGaussianBlur stdDeviation="4"/>
<feColorMatrix type="matrix" values="0 0 0 0 0.0588235 0 0 0 0 0.109804 0 0 0 0 0.2 0 0 0 0.05 0"/>
<feBlend mode="normal" in2="BackgroundImageFix" result="effect1_dropShadow_9300_2209"/>
<feColorMatrix in="SourceAlpha" type="matrix" values="0 0 0 0 0 0 0 0 0 0 0 0 0 0 0 0 0 0 127 0" result="hardAlpha"/>
<feMorphology radius="4" operator="erode" in="SourceAlpha" result="effect2_dropShadow_9300_2209"/>
<feOffset dy="10"/>
<feGaussianBlur stdDeviation="7"/>
<feComposite in2="hardAlpha" operator="out"/>
<feColorMatrix type="matrix" values="0 0 0 0 0.0588235 0 0 0 0 0.109804 0 0 0 0 0.2 0 0 0 0.08 0"/>
<feBlend mode="normal" in2="effect1_dropShadow_9300_2209" result="effect2_dropShadow_9300_2209"/>
<feBlend mode="normal" in="SourceGraphic" in2="effect2_dropShadow_9300_2209" result="shape"/>
</filter>
</defs>
</svg>
