<svg width="17" height="17" viewBox="0 0 17 17" fill="none" xmlns="http://www.w3.org/2000/svg">
<path d="M8.02279 1.05859C8.72232 1.05859 9.27332 1.58695 9.62505 2.29987L10.7998 4.6687C10.8354 4.74201 10.9199 4.84525 11.0468 4.93969C11.1736 5.03403 11.2978 5.08607 11.3795 5.09979L13.5059 5.45601C14.274 5.58508 14.9178 5.96159 15.1268 6.61719C15.3356 7.27226 15.0297 7.95299 14.4773 8.50633L14.4767 8.50693L12.8248 10.1725C12.7593 10.2385 12.686 10.3629 12.64 10.5249C12.5943 10.6858 12.5903 10.8324 12.611 10.9271L12.6113 10.9284L13.0839 12.9889C13.2799 13.8464 13.2149 14.6968 12.6101 15.1414C12.0032 15.5875 11.1739 15.3897 10.4204 14.941L8.42712 13.7513C8.34339 13.7013 8.19965 13.6607 8.02612 13.6607C7.85385 13.6607 7.70712 13.7007 7.61792 13.7526L7.61665 13.7533L5.62731 14.9407C4.87475 15.3911 4.04642 15.5853 3.43946 15.1387C2.83505 14.6941 2.76682 13.8453 2.96346 12.9884L3.43599 10.9284L3.43628 10.9271C3.457 10.8324 3.45294 10.6858 3.40726 10.5249C3.36126 10.3629 3.28792 10.2385 3.22244 10.1725L1.56929 8.50566C1.02049 7.95233 0.715529 7.27219 0.922689 6.61809C1.13045 5.96209 1.77301 5.58513 2.54161 5.45597L4.66627 5.10005L4.66694 5.09994C4.74484 5.08643 4.86719 5.03497 4.99371 4.94038C5.12046 4.84562 5.20512 4.74216 5.2408 4.6687L5.2426 4.66504L6.4158 2.29924L6.41627 2.29831C6.77139 1.58598 7.32406 1.05859 8.02279 1.05859Z" fill="#EAB308"/>
</svg>
