<svg width="117" height="119" viewBox="0 0 117 119" fill="none" xmlns="http://www.w3.org/2000/svg">
<circle cx="59.8838" cy="56.9189" r="40.6611" fill="#16A34A"/>
<path fill-rule="evenodd" clip-rule="evenodd" d="M53.8398 42.1328C49.4216 42.1328 45.8398 45.7145 45.8398 50.1328V64.4438C45.8398 68.8621 49.4216 72.4438 53.8398 72.4438H68.1509C72.5692 72.4438 76.1509 68.8621 76.1509 64.4438V50.1328C76.1509 45.7145 72.5692 42.1328 68.1509 42.1328H53.8398ZM68.8048 53.2649C69.0214 53.0486 69.1297 52.7647 69.1297 52.481C69.1297 51.8468 68.6133 51.372 68.0207 51.372C67.7366 51.372 67.4524 51.4805 67.2376 51.6978L59.1492 59.7861L55.4973 56.1327C55.2811 55.9161 54.9972 55.8078 54.7135 55.8078C54.1226 55.8078 53.6045 56.2833 53.6045 56.9167C53.6045 57.2009 53.713 57.4851 53.9296 57.7008L58.3653 62.1366C58.5816 62.3532 58.8651 62.4614 59.1492 62.4614C59.4334 62.4614 59.7176 62.354 59.9333 62.1364L68.8048 53.2649Z" fill="white"/>
<circle cx="12.5676" cy="17.7415" r="5.17505" fill="#16A34A"/>
<circle cx="112.742" cy="38.0739" r="4.06611" fill="#16A34A"/>
<circle cx="75.4073" cy="2.21788" r="2.21788" fill="#16A34A"/>
<circle cx="114.591" cy="72.4483" r="2.21788" fill="#16A34A"/>
<circle cx="102.023" cy="95.3702" r="2.21788" fill="#16A34A"/>
<circle cx="41.4005" cy="109.414" r="2.95717" fill="#16A34A"/>
<circle cx="3.69647" cy="83.5402" r="3.69647" fill="#16A34A"/>
<circle cx="79.4742" cy="117.175" r="1.10894" fill="#16A34A"/>
</svg>
