<svg width="49" height="48" viewBox="0 0 49 48" fill="none" xmlns="http://www.w3.org/2000/svg">
<circle cx="24.5059" cy="24" r="24" fill="#FFF8F1"/>
<path d="M22.8496 21.5156H26.6586V23.3657H22.8496V21.5156Z" fill="#E6E9ED"/>
<path d="M30.47 19.6678V23.738H28.9464V19.6678V17.0776C28.9464 14.8316 27.0686 13.0074 24.7565 13.0074C22.4444 13.0074 20.5666 14.8316 20.5666 17.0776V19.6678V23.738H19.043V19.6678V17.0776C19.043 14.0139 21.5988 11.5273 24.7565 11.5273C27.9104 11.5273 30.47 14.0139 30.47 17.0776V19.6678Z" fill="#E1832C"/>
<path d="M34.2738 19.668L35.4203 31.5086C35.4203 33.1441 34.0567 34.4687 32.3731 34.4687H17.1371C15.4535 34.4687 14.0898 33.1441 14.0898 31.5086L15.2364 19.668H19.0416V23.7382H20.5652V19.668H28.945V23.7382H30.4686V19.668H34.2738ZM26.6596 23.3682V21.5181H22.8506V23.3682H26.6596Z" fill="#D26A09"/>
</svg>
