<svg width="49" height="48" viewBox="0 0 49 48" fill="none" xmlns="http://www.w3.org/2000/svg">
<circle cx="24.5059" cy="24" r="24" fill="#FFF3FE"/>
<path d="M29.4194 20.2221L25.8254 13.9971C25.3169 13.1163 25.9526 12.0156 26.9693 12.0156H34.1576C35.1746 12.0156 35.81 13.1163 35.3015 13.9971L31.7075 20.2221C31.199 21.1029 29.9279 21.1029 29.4194 20.2221Z" fill="#EF9A9A"/>
<path d="M32.6305 18.6133L32.4436 23.7205L32.4217 24.3205L32.0467 34.5718C32.0323 34.9553 31.8698 35.3183 31.5934 35.5845C31.3169 35.8507 30.9481 35.9995 30.5643 35.9995C30.1805 35.9995 29.8117 35.8507 29.5352 35.5845C29.2588 35.3183 29.0963 34.9553 29.0818 34.5718L28.7068 24.3205L28.6849 23.7205L28.498 18.6154L32.6305 18.6133Z" fill="#6D4C41"/>
<path d="M32.4423 23.7188L32.4204 24.3188H28.7055L28.6836 23.7188H32.4423Z" fill="#5E392F"/>
<path d="M15.7188 24.5547H24.0155V35.9985H15.7188V24.5547Z" fill="#546E7A"/>
<path d="M16.6719 20.8047H23.0613V24.5556H16.6719V20.8047Z" fill="#78909C"/>
<path d="M17.7852 12L21.9492 13.8159V20.8053H17.7852V12Z" fill="#FF1744"/>
<path d="M21.5362 26.9086H18.1984C18.1189 26.9086 18.0426 26.877 17.9863 26.8207C17.93 26.7645 17.8984 26.6882 17.8984 26.6086C17.8984 26.529 17.93 26.4527 17.9863 26.3965C18.0426 26.3402 18.1189 26.3086 18.1984 26.3086H21.5362C21.6158 26.3086 21.6921 26.3402 21.7484 26.3965C21.8046 26.4527 21.8362 26.529 21.8362 26.6086C21.8362 26.6882 21.8046 26.7645 21.7484 26.8207C21.6921 26.877 21.6158 26.9086 21.5362 26.9086Z" fill="#78909C"/>
<path d="M21.5362 29.3578H18.1984C18.1189 29.3578 18.0426 29.3262 17.9863 29.2699C17.93 29.2137 17.8984 29.1374 17.8984 29.0578C17.8984 28.9782 17.93 28.9019 17.9863 28.8457C18.0426 28.7894 18.1189 28.7578 18.1984 28.7578H21.5362C21.6158 28.7578 21.6921 28.7894 21.7484 28.8457C21.8046 28.9019 21.8362 28.9782 21.8362 29.0578C21.8362 29.1374 21.8046 29.2137 21.7484 29.2699C21.6921 29.3262 21.6158 29.3578 21.5362 29.3578Z" fill="#78909C"/>
<path d="M21.5362 31.8031H18.1984C18.1189 31.8031 18.0426 31.7715 17.9863 31.7153C17.93 31.659 17.8984 31.5827 17.8984 31.5031C17.8984 31.4236 17.93 31.3473 17.9863 31.291C18.0426 31.2347 18.1189 31.2031 18.1984 31.2031H21.5362C21.6158 31.2031 21.6921 31.2347 21.7484 31.291C21.8046 31.3473 21.8362 31.4236 21.8362 31.5031C21.8362 31.5827 21.8046 31.659 21.7484 31.7153C21.6921 31.7715 21.6158 31.8031 21.5362 31.8031Z" fill="#78909C"/>
<path d="M21.5362 34.2523H18.1984C18.1189 34.2523 18.0426 34.2207 17.9863 34.1645C17.93 34.1082 17.8984 34.0319 17.8984 33.9523C17.8984 33.8728 17.93 33.7965 17.9863 33.7402C18.0426 33.684 18.1189 33.6523 18.1984 33.6523H21.5362C21.6158 33.6523 21.6921 33.684 21.7484 33.7402C21.8046 33.7965 21.8362 33.8728 21.8362 33.9523C21.8362 34.0319 21.8046 34.1082 21.7484 34.1645C21.6921 34.2207 21.6158 34.2523 21.5362 34.2523Z" fill="#78909C"/>
</svg>
