<svg width="49" height="48" viewBox="0 0 49 48" fill="none" xmlns="http://www.w3.org/2000/svg">
<circle cx="24.5059" cy="24" r="24" fill="#FFF4F4"/>
<path d="M33.5446 33.8544C33.5446 33.8544 33.4578 34.1111 32.6646 34.5714C32.6271 34.5943 32.5878 34.6172 32.5451 34.6397C32.3875 34.7293 32.311 34.9147 32.3597 35.0894L32.4037 35.2577C32.4492 35.4297 32.3716 35.6106 32.2156 35.6961C31.9903 35.8171 31.7386 35.8806 31.4828 35.8809C31.4582 35.8809 31.4354 35.8809 31.4108 35.8809L31.1932 35.8709L30.8316 35.8545C30.7183 35.849 30.6061 35.8793 30.511 35.9413C30.3594 36.0398 30.2663 36.2071 30.2624 36.3879C30.258 36.6052 30.0805 36.7789 29.8633 36.7788C29.8469 36.7788 29.8291 36.7788 29.8124 36.7754L29.2104 36.7003L29.1596 36.6955C28.9653 36.6799 28.7707 36.722 28.6003 36.8164C28.5313 36.8526 28.4679 36.8985 28.4121 36.953C28.2439 37.1233 28.1022 37.3179 27.9918 37.5304C27.9411 37.6342 27.8659 37.7241 27.7726 37.7923C27.5799 37.9274 27.3503 37.9999 27.115 37.9999H25.954C25.7464 37.9999 25.5419 37.99 25.3356 37.9722C25.1444 37.9558 24.8576 37.9347 24.5079 37.923C24.1563 37.9346 23.8701 37.9572 23.6785 37.9722C23.4737 37.9903 23.2688 37.9999 23.0618 37.9999H21.8907C21.4895 37.9854 21.1329 37.7399 20.9762 37.3703C20.8719 37.0989 20.6796 36.8704 20.4299 36.7215C20.3346 36.6745 20.2286 36.6537 20.1226 36.661C20.1226 36.661 20.0065 36.6757 19.8559 36.6952C19.5711 36.7293 19.1624 36.7802 19.1508 36.7802C18.9335 36.7802 18.7561 36.6064 18.7516 36.3892C18.7447 36.0876 18.4946 35.8486 18.193 35.8555C18.1894 35.8556 18.1859 35.8557 18.1824 35.8559L17.8208 35.8723L17.605 35.8822C17.5804 35.8822 17.5575 35.8822 17.5329 35.8822C17.2753 35.8815 17.0218 35.8169 16.7954 35.6941C16.6405 35.6093 16.564 35.4293 16.6106 35.2591L16.6564 35.0907C16.7036 34.9159 16.6261 34.7312 16.4682 34.6424L16.3487 34.5741C15.5555 34.1128 15.4688 33.8543 15.4688 33.8543C16.4099 29.926 17.843 26.1321 19.7339 22.5624C19.9867 22.0925 20.2853 21.6487 20.6254 21.2376L20.9328 20.8664C21.2904 20.4299 21.5799 19.9418 21.7915 19.4187L22.0794 18.6958C20.0331 16.1062 20.3746 12.8951 20.3746 12.8951L20.0884 10.762L20.4982 10.157L21.3013 10.0279L21.4792 10C21.8617 11.6718 23.5269 12.717 25.1987 12.3345C26.3604 12.0688 27.2675 11.1617 27.5332 10L27.7115 10.0277L28.5146 10.1567L28.9244 10.7618L28.6379 12.8952C28.6379 12.8952 28.9794 16.1049 26.9333 18.6955L27.2229 19.4184C27.357 19.7537 27.5241 20.0748 27.7218 20.3769C27.8327 20.5464 27.9529 20.7096 28.0817 20.8659L28.3889 21.237C28.728 21.649 29.0265 22.0927 29.2805 22.5619C31.1702 26.1321 32.6029 29.9262 33.5446 33.8544Z" fill="#EF5261"/>
<path d="M32.6643 34.5746C32.6267 34.5975 32.5875 34.6204 32.5447 34.6429C32.3876 34.7324 32.3112 34.9172 32.3593 35.0916L32.4034 35.2599C32.4488 35.432 32.3713 35.6128 32.2152 35.6983C31.99 35.8193 31.7382 35.8828 31.4825 35.8831C31.4579 35.8831 31.435 35.8831 31.4104 35.8831L31.1929 35.8732L28.8027 24.207L32.6643 34.5746Z" fill="#DA364C"/>
<path d="M30.5108 35.9388C30.3592 36.0374 30.2661 36.2046 30.2622 36.3855C30.2578 36.6027 30.0804 36.7765 29.8631 36.7764C29.8467 36.7764 29.829 36.7764 29.8122 36.773L29.2103 36.6979L29.1594 36.6931L27.7383 23.1602L30.5108 35.9388Z" fill="#DA364C"/>
<path d="M28.5996 36.814C28.5306 36.8502 28.4672 36.8962 28.4114 36.9506C28.2431 37.1209 28.1015 37.3156 27.9911 37.528C27.9404 37.6318 27.8651 37.7217 27.7719 37.7899C27.5792 37.925 27.3496 37.9975 27.1142 37.9975H26.2637L26.4893 23.793L28.5996 36.814Z" fill="#DA364C"/>
<path d="M20.2127 24.2031L17.8198 35.8683L17.6039 35.8782C17.5794 35.8782 17.5565 35.8782 17.5319 35.8782C17.2742 35.8775 17.0208 35.8129 16.7943 35.69C16.6394 35.6053 16.563 35.4253 16.6096 35.255L16.6553 35.0867C16.7025 34.9118 16.625 34.7272 16.4672 34.6383L16.3477 34.5701L20.2127 24.2031Z" fill="#DA364C"/>
<path d="M21.2765 23.1602L19.855 36.6927C19.5703 36.7269 19.1615 36.7777 19.1499 36.7777C18.9326 36.7778 18.7552 36.604 18.7508 36.3868C18.7479 36.2069 18.6552 36.0403 18.5039 35.9429L21.2765 23.1602Z" fill="#DA364C"/>
<path d="M22.7492 38.0014H21.8905C21.4893 37.9869 21.1327 37.7414 20.976 37.3717C20.8717 37.1004 20.6794 36.8719 20.4297 36.723L22.5235 23.7969L22.7492 38.0014Z" fill="#DA364C"/>
<path d="M30.4055 12.4863C29.8387 12.7069 29.2431 12.8449 28.6371 12.896C28.4246 11.9991 28.383 11.0702 28.5145 10.1579C29.1975 9.90299 29.9578 10.25 30.2128 10.933C30.2594 11.058 30.2868 11.1893 30.2941 11.3225L30.4055 12.4863Z" fill="#DA364C"/>
<path d="M18.6074 12.4863C19.1742 12.7069 19.7698 12.8449 20.3758 12.896C20.5883 11.9991 20.6299 11.0702 20.4984 10.1579C19.8154 9.90299 19.055 10.25 18.8001 10.933C18.7534 11.058 18.726 11.1893 18.7187 11.3225L18.6074 12.4863Z" fill="#DA364C"/>
<path d="M27.7534 10.0341C27.4599 11.5776 26.0899 12.6801 24.5195 12.6367C21.6144 12.6367 21.2773 10.0686 21.2773 10.0311L21.4801 10C21.8625 11.6718 23.5278 12.717 25.1996 12.3345C26.3612 12.0688 27.2684 11.1617 27.5341 10L27.7534 10.0341Z" fill="#DA364C"/>
</svg>
