<svg width="49" height="48" viewBox="0 0 49 48" fill="none" xmlns="http://www.w3.org/2000/svg">
<circle cx="24.5059" cy="24" r="24" fill="#F1F9FF"/>
<g clip-path="url(#clip0_9051_602)">
<path d="M14.9886 30.8071L12.5059 29.9795V23.3588L14.9886 22.5312V30.8071Z" fill="#348FD9"/>
<path d="M16.2297 21.2891H17.0572C17.7428 21.2891 18.2986 21.8449 18.2986 22.5304V30.8063C18.2986 31.4918 17.7428 32.0477 17.0572 32.0477H16.2297C15.5441 32.0477 14.9883 31.4918 14.9883 30.8063V22.5304C14.9883 21.8449 15.5441 21.2891 16.2297 21.2891Z" fill="#3D4D63"/>
<path d="M34.0234 22.5312L36.5062 23.3588V29.9795L34.0234 30.8071V22.5312Z" fill="#348FD9"/>
<path d="M32.7819 32.0477H31.9543C31.2687 32.0477 30.7129 31.4918 30.7129 30.8063V22.5304C30.7129 21.8449 31.2687 21.2891 31.9543 21.2891H32.7819C33.4674 21.2891 34.0232 21.8449 34.0232 22.5304V30.8063C34.0232 31.4918 33.4674 32.0477 32.7819 32.0477Z" fill="#3D4D63"/>
<path d="M30.7129 28.326V30.8087C30.7129 31.4943 31.2687 32.0501 31.9543 32.0501H32.7819C33.4674 32.0501 34.0232 31.4943 34.0232 30.8087V25.0156L30.7129 28.326Z" fill="#374559"/>
<path d="M13.334 22.1175V23.0829L14.9892 22.5313V22.1175C14.9867 20.3955 15.4539 18.7053 16.3403 17.229L14.9813 16.2773C13.9013 18.0335 13.331 20.0556 13.334 22.1175Z" fill="#3086CD"/>
<path d="M32.6719 17.2286C33.5583 18.7049 34.0254 20.3951 34.023 22.1171V22.5309L35.6781 23.0825V22.1171C35.681 20.0554 35.1108 18.0335 34.0308 16.2773L32.6719 17.2286Z" fill="#3086CD"/>
<path d="M24.5056 10.9453C20.6188 10.9437 17.0108 12.9636 14.9805 16.2779L16.3394 17.2296C18.0583 14.3579 21.1589 12.6003 24.5056 12.6003C27.8523 12.6003 30.9529 14.3579 32.6717 17.2296L34.0307 16.2779C32.0003 12.9636 28.3924 10.9437 24.5056 10.9453Z" fill="#3D4D63"/>
<path d="M21.6103 18.3945H27.4034C28.3174 18.3945 29.0585 19.1356 29.0585 20.0497V33.2911C29.0585 34.2051 28.3174 34.9463 27.4034 34.9463H21.6103C20.6962 34.9463 19.9551 34.2051 19.9551 33.2911V20.0497C19.9551 19.1356 20.6962 18.3945 21.6103 18.3945Z" fill="#E0E0DE"/>
<path d="M27.4027 18.3945H24.9199C25.834 18.3945 26.5751 19.1356 26.5751 20.0497V33.2911C26.5751 34.2051 25.834 34.9463 24.9199 34.9463H27.4027C28.3167 34.9463 29.0579 34.2051 29.0579 33.2911V20.0497C29.0579 19.1356 28.3167 18.3945 27.4027 18.3945Z" fill="#D6D6D4"/>
<path d="M19.9551 21.7031H29.0585V31.6342H19.9551V21.7031Z" fill="#FFB531"/>
<path d="M26.5742 21.7031H29.057V31.6342H26.5742V21.7031Z" fill="#FFA912"/>
<path d="M24.0918 32.8789H24.9194V33.7065H24.0918V32.8789Z" fill="#B0B0AE"/>
<path d="M22.8496 19.6367H26.16V20.4643H22.8496V19.6367Z" fill="#B0B0AE"/>
<path d="M21.1953 19.6367H22.0229V20.4643H21.1953V19.6367Z" fill="#B0B0AE"/>
<path d="M26.9881 23.3594H22.8502C22.6217 23.3594 22.4364 23.5447 22.4364 23.7732V27.1597C22.3039 27.1106 22.1639 27.0849 22.0226 27.0835C21.3371 27.0835 20.7812 27.6393 20.7812 28.3249C20.7812 29.0104 21.3371 29.5663 22.0226 29.5663C22.7082 29.5663 23.264 29.0104 23.264 28.3249V25.8421H26.5744V27.1597C26.4418 27.1106 26.3018 27.0849 26.1606 27.0835C25.475 27.0835 24.9192 27.6393 24.9192 28.3249C24.9192 29.0104 25.475 29.5663 26.1606 29.5663C26.8461 29.5663 27.4019 29.0104 27.4019 28.3249V23.7732C27.4019 23.5447 27.2167 23.3594 26.9881 23.3594ZM22.0226 28.7387C21.7941 28.7387 21.6088 28.5534 21.6088 28.3249C21.6088 28.0964 21.7941 27.9111 22.0226 27.9111C22.2511 27.9111 22.4364 28.0964 22.4364 28.3249C22.4364 28.5534 22.2511 28.7387 22.0226 28.7387ZM23.264 25.0145V24.187H26.5744V25.0145H23.264ZM26.1606 28.7387C25.932 28.7387 25.7468 28.5534 25.7468 28.3249C25.7468 28.0964 25.932 27.9111 26.1606 27.9111C26.3891 27.9111 26.5744 28.0964 26.5744 28.3249C26.5744 28.5534 26.3891 28.7387 26.1606 28.7387Z" fill="#F98500"/>
<path d="M14.9883 28.326V30.8087C14.9883 31.4943 15.5441 32.0501 16.2297 32.0501H17.0572C17.7428 32.0501 18.2986 31.4943 18.2986 30.8087V25.0156L14.9883 28.326Z" fill="#374559"/>
</g>
<defs>
<clipPath id="clip0_9051_602">
<rect width="24" height="24" fill="white" transform="translate(12.5059 10.9453)"/>
</clipPath>
</defs>
</svg>
