<svg width="49" height="48" viewBox="0 0 49 48" fill="none" xmlns="http://www.w3.org/2000/svg">
<circle cx="24.5059" cy="24" r="24" fill="#F6F2FF"/>
<path d="M33.0191 23.0016V36.1086H28.4785V23.0016C28.4785 19.6643 29.2542 16.3762 30.7488 13.3945C32.2396 16.3724 33.0191 19.6643 33.0191 23.0016Z" fill="#8657F7"/>
<path d="M28.4746 36.1052L30.7487 33.3203L33.0189 36.1052H28.4746Z" fill="#714BE8"/>
<path d="M30.7527 13.3906C29.2581 16.3722 28.4825 19.6641 28.4825 22.9977V36.1085H16.5333C16.2343 36.1085 15.9922 35.8663 15.9922 35.5674V23.0014C15.9922 19.6641 16.7679 16.376 18.2625 13.3944H30.7527V13.3906Z" fill="#9966FF"/>
<path d="M15.9922 22.9297H28.4825V31.1064H15.9922V22.9297Z" fill="#FFCF47"/>
<path d="M18.8028 11.8906H30.2109C30.5098 11.8906 30.752 12.1328 30.752 12.4317V13.3928H18.2617V12.4317C18.2617 12.1328 18.5039 11.8906 18.8028 11.8906Z" fill="#8657F7"/>
<path d="M22.8555 11.8906H26.1549V13.3928H22.8555V11.8906Z" fill="#E8E8E8"/>
<path d="M26.1596 13.3906L25.4785 14.749C24.4342 16.8377 23.8893 19.142 23.8893 21.4766H20.5898C20.5898 19.142 21.1347 16.8377 22.179 14.749L22.8601 13.3906H26.1596Z" fill="#E8E8E8"/>
<path d="M23.9461 28.7235C25.3009 27.3687 25.6339 25.5051 24.6898 24.561C23.7457 23.6169 21.8821 23.9499 20.5273 25.3047C19.1725 26.6595 18.8395 28.5231 19.7836 29.4672C20.7277 30.4113 22.5913 30.0783 23.9461 28.7235Z" fill="#CC6633"/>
<path opacity="0.1" d="M24.4906 24.7626C25.323 25.5951 24.99 27.2826 23.7489 28.5275C22.7311 29.5454 21.4181 29.954 20.5176 29.6135C21.3651 29.6816 22.4057 29.2578 23.2457 28.4178C24.4906 27.1729 24.8197 25.4854 23.9873 24.6529C23.836 24.5016 23.6543 24.3843 23.45 24.3086C23.8587 24.3426 24.2219 24.4902 24.4906 24.7626Z" fill="black"/>
<path d="M20.1309 28.4169C20.3541 28.0386 20.6417 27.7018 20.986 27.418C21.3303 27.1342 21.7352 26.9186 22.1249 26.7559C22.5146 26.5894 22.8817 26.4418 23.2411 26.2451C23.6006 26.0521 23.9525 25.8251 24.3384 25.6094C24.119 25.9878 23.8314 26.3245 23.4833 26.6083C23.139 26.8921 22.7341 27.1078 22.3444 27.2705C21.9546 27.4369 21.5876 27.5845 21.2282 27.7813C20.8687 27.9742 20.5168 28.2051 20.1309 28.4169Z" fill="#BA5224"/>
<path opacity="0.1" d="M24.3197 24.2801C24.3234 24.3785 24.3159 24.4731 24.3121 24.5677C24.278 25.0482 24.1305 25.5363 23.8126 25.8996C23.6234 26.1153 23.3661 26.312 23.3548 26.5958C23.3472 26.7509 23.4191 26.8985 23.4607 27.0461C23.5024 27.1936 23.5099 27.3753 23.3964 27.4812C23.3056 27.572 23.1618 27.5834 23.0483 27.6439C22.8553 27.7461 22.7683 27.9693 22.7267 28.1812C22.6851 28.3931 22.6699 28.6163 22.564 28.8055C22.3407 29.1877 21.7807 29.3088 21.6407 29.725C21.6142 29.8007 21.6067 29.8839 21.6142 29.9634C20.9029 30.0693 20.2407 29.9104 19.7867 29.4601C18.8445 28.518 19.1737 26.6526 20.5321 25.298C21.724 24.1098 23.3132 23.7088 24.3197 24.2801Z" fill="white"/>
<path opacity="0.1" d="M22.526 24.1211C22.4125 24.5335 22.3822 24.9989 22.0795 25.2941C21.9017 25.4681 21.6633 25.5514 21.4439 25.6687C21.2282 25.786 21.0125 25.9676 20.986 26.2097C20.9557 26.4708 21.1374 26.7092 21.1336 26.9703C21.126 27.2806 20.8612 27.5151 20.6228 27.7119C20.3882 27.9124 20.1384 28.166 20.1649 28.4762C20.1876 28.707 20.3579 28.8924 20.4639 29.1006C20.5887 29.3465 20.6114 29.6379 20.5584 29.9141C20.2671 29.8308 19.9984 29.6795 19.7828 29.4638C18.8406 28.5216 19.1698 26.6562 20.5282 25.3016C21.1336 24.7 21.8449 24.2951 22.526 24.1211Z" fill="white"/>
<path opacity="0.1" d="M31.381 14.789C30.6015 15.5079 29.962 16.3404 29.6366 17.3506C29.4172 18.0241 29.3491 18.7658 28.9404 19.3447C28.6528 19.7533 28.2215 20.0371 27.9301 20.442C26.8404 21.9479 28.0626 24.3695 26.8593 25.7847C26.1669 26.5982 24.8577 26.7874 24.3431 27.7258C24.0745 28.2214 24.0896 28.8117 24.0177 29.3717C23.8134 30.8777 22.8485 32.2587 21.5053 32.9663C20.7296 33.375 19.8593 33.5679 19.0156 33.8063C18.168 34.0447 17.3166 34.3549 16.6696 34.9452C16.4123 35.1836 16.2004 35.4749 16.0453 35.7928C16.015 35.7247 15.9961 35.649 15.9961 35.5658V22.9279C16.0074 19.6171 16.7793 16.3555 18.2664 13.3928H18.2626V12.4317C18.2626 12.1328 18.5047 11.8906 18.8037 11.8906H30.208C30.5069 11.8906 30.7528 12.1328 30.7528 12.4317V13.389C30.7528 13.3928 30.7528 13.3928 30.7491 13.3966C30.9799 13.8506 31.188 14.3198 31.381 14.789Z" fill="white"/>
<path opacity="0.1" d="M24.6457 11.8906C23.5371 12.8101 22.7765 14.1609 22.6365 15.5949C22.5835 16.1512 22.6025 16.7528 22.2808 17.2068C21.9252 17.7139 21.2365 17.8955 20.8657 18.3912C20.1279 19.3674 20.9754 20.9112 20.3171 21.9441C19.9652 22.4928 19.2462 22.769 19.0192 23.3782C18.8225 23.889 19.0457 24.449 19.1479 24.9901C19.4468 26.5263 18.7279 28.1533 17.5435 29.1787C17.0781 29.5798 16.5522 29.9014 15.9922 30.1474V22.9279C16.0035 19.6171 16.7754 16.3555 18.2625 13.3928V12.4317C18.2625 12.1328 18.5046 11.8906 18.8035 11.8906H24.6457Z" fill="white"/>
<path opacity="0.1" d="M32.6378 22.9967V35.7253H16.534C16.447 35.7253 16.3789 35.6534 16.3789 35.5702V34.6545H23.1746C27.7757 34.6545 31.5065 30.9237 31.5065 26.3226V21.9259C31.5065 18.6718 30.7384 15.4102 29.2778 12.4967L29.1643 12.2734H30.2162C30.3032 12.2734 30.3713 12.3453 30.3713 12.4286V13.2232L30.2843 13.3102L30.4092 13.5637C31.8659 16.481 32.6378 19.7426 32.6378 22.9967Z" fill="black"/>
</svg>
