<svg width="49" height="48" viewBox="0 0 49 48" fill="none" xmlns="http://www.w3.org/2000/svg">
<circle cx="24.5059" cy="24" r="24" fill="#FFFBEF"/>
<path d="M20.2395 11.0156H28.7566C29.0697 11.0156 29.3212 11.283 29.3092 11.6054C29.2624 12.8684 29.3967 15.3662 30.9768 17.835C32.8282 20.7274 35.518 21.7887 36.6555 22.1362C36.8846 22.2063 37.0441 22.4188 37.0519 22.6649C37.1021 24.2405 36.9693 26.8908 35.7457 29.8336C34.3136 33.2784 32.1215 35.3569 30.9794 36.3044H18.0304C16.8883 35.3569 14.6963 33.2784 13.2641 29.8336C12.0363 26.8805 11.9068 24.222 11.9585 22.6484C11.9663 22.41 12.1164 22.2019 12.3359 22.1257C13.5528 21.7029 16.6734 20.3566 18.4687 16.8943C19.5502 14.8087 19.7079 12.8094 19.6866 11.5934C19.681 11.2755 19.9309 11.0156 20.2395 11.0156Z" fill="#335E80"/>
<path d="M37.0521 22.6649C37.0442 22.4188 36.8848 22.2063 36.6557 22.1362C35.5182 21.7887 32.8284 20.7274 30.977 17.8349C29.3968 15.3662 29.2626 12.8684 29.3094 11.6053C29.3213 11.283 29.0698 11.0156 28.7567 11.0156H27.0977C27.4108 11.0156 27.6622 11.283 27.6503 11.6054C27.6035 12.8684 27.7378 15.3662 29.3179 17.835C31.1693 20.7274 33.8591 21.7887 34.9966 22.1363C35.2257 22.2063 35.3851 22.4189 35.393 22.665C35.4432 24.2406 35.3104 26.8908 34.0868 29.8337C32.6546 33.2785 30.4626 35.357 29.3205 36.3044H30.9795C32.1217 35.357 34.3136 33.2785 35.7459 29.8337C36.9695 26.8908 37.1023 24.2405 37.0521 22.6649Z" fill="#235170"/>
<path d="M30.9765 17.8341C30.9474 17.7885 30.9198 17.743 30.8916 17.6975C30.8448 17.7295 30.8034 17.7717 30.7713 17.8237C30.3102 18.569 29.7332 19.2165 29.0563 19.7481C27.3413 21.094 25.4704 21.3158 24.5047 21.3278C23.5389 21.3158 21.6679 21.094 19.953 19.7481C19.2507 19.1968 18.6559 18.5199 18.1851 17.7361C18.1526 17.6821 18.1101 17.6385 18.0619 17.6055C17.9037 17.8596 17.7389 18.1013 17.5684 18.3299C18.0781 19.1419 18.7105 19.8472 19.4502 20.428C21.3582 21.9254 23.433 22.17 24.4999 22.1826H24.5046C24.5046 22.1826 24.5078 22.1826 24.5093 22.1826C25.5763 22.17 27.651 21.9254 29.5591 20.4279C30.2717 19.8683 30.8833 19.1926 31.3818 18.4202C31.2432 18.2333 31.1076 18.0388 30.9765 17.8341Z" fill="#FFF8BF"/>
<path d="M30.7723 17.8254C30.5526 18.1805 30.3058 18.5127 30.0352 18.8215C30.2191 19.0453 30.4077 19.2548 30.5989 19.4514C30.8845 19.1309 31.1468 18.7876 31.3829 18.4218C31.3828 18.4218 31.3828 18.4217 31.3827 18.4217C31.3117 18.3259 31.2423 18.2292 31.1739 18.1305C31.0768 17.9903 30.9826 17.8453 30.8926 17.6992C30.8458 17.7312 30.8044 17.7733 30.7723 17.8254Z" fill="#FCEA9D"/>
<path d="M24.5046 28.5401C24.2755 28.5401 24.0898 28.3488 24.0898 28.1127V21.7398C24.0898 21.5038 24.2755 21.3125 24.5046 21.3125C24.7337 21.3125 24.9193 21.5038 24.9193 21.7398V28.1127C24.9193 28.3488 24.7337 28.5401 24.5046 28.5401Z" fill="#FFF8BF"/>
<path d="M24.5053 34.4288C23.0118 34.4288 21.7969 33.177 21.7969 31.6383C21.7969 30.2943 23.8632 27.7706 24.3861 27.1535C24.4492 27.079 24.5613 27.079 24.6244 27.1535C25.1473 27.7706 27.2136 30.2943 27.2136 31.6383C27.2136 33.177 25.9986 34.4288 24.5053 34.4288Z" fill="#FFE179"/>
<path d="M24.6245 27.1535C24.5614 27.079 24.4493 27.079 24.3862 27.1535C24.2418 27.3239 23.9795 27.6401 23.6758 28.0362C24.4721 29.0748 25.5547 30.6655 25.5547 31.6383C25.5547 32.879 24.7646 33.9326 23.6758 34.2944C23.9374 34.3813 24.216 34.4288 24.5053 34.4288C25.9987 34.4288 27.2137 33.177 27.2137 31.6383C27.2137 30.2943 25.1474 27.7706 24.6245 27.1535Z" fill="#FBD268"/>
<path d="M24.5053 32.8515C25.1544 32.8515 25.6806 32.3093 25.6806 31.6406C25.6806 30.9718 25.1544 30.4297 24.5053 30.4297C23.8563 30.4297 23.3301 30.9718 23.3301 31.6406C23.3301 32.3093 23.8563 32.8515 24.5053 32.8515Z" fill="#F58A97"/>
<path d="M24.505 30.4297C24.2405 30.4297 23.9972 30.5208 23.8008 30.6728C24.2152 30.8599 24.505 31.2857 24.505 31.7818C24.505 32.178 24.3195 32.5287 24.0339 32.7496C24.1782 32.8148 24.3373 32.8515 24.505 32.8515C25.1541 32.8515 25.6803 32.3094 25.6803 31.6406C25.6803 30.9718 25.1541 30.4297 24.505 30.4297Z" fill="#F07281"/>
<path d="M24.5068 22.6574C24.9981 22.6574 25.3964 22.247 25.3964 21.7408C25.3964 21.2346 24.9981 20.8242 24.5068 20.8242C24.0155 20.8242 23.6172 21.2346 23.6172 21.7408C23.6172 22.247 24.0155 22.6574 24.5068 22.6574Z" fill="#F58A97"/>
<path d="M24.5046 20.8242C24.3547 20.8242 24.2137 20.8628 24.0898 20.9302C24.3721 21.0839 24.5647 21.389 24.5647 21.7408C24.5647 22.0926 24.3721 22.3977 24.0898 22.5514C24.2137 22.6188 24.3547 22.6574 24.5046 22.6574C24.9959 22.6574 25.3942 22.247 25.3942 21.7408C25.3942 21.2346 24.9959 20.8242 24.5046 20.8242Z" fill="#F07281"/>
<path d="M29.4831 24.2652C29.254 24.2652 29.0684 24.0739 29.0684 23.8378V20.0289C29.0684 19.7928 29.254 19.6016 29.4831 19.6016C29.7122 19.6016 29.8979 19.7929 29.8979 20.0289V23.8378C29.8979 24.0739 29.7122 24.2652 29.4831 24.2652Z" fill="#FFF8BF"/>
<path d="M29.4827 29.4294C28.1105 29.4294 26.9941 28.2792 26.9941 26.8654C26.9941 25.6758 28.7559 23.4628 29.3148 22.7907C29.4032 22.6844 29.5623 22.6844 29.6507 22.7907C30.2096 23.4628 31.9714 25.6758 31.9714 26.8654C31.9714 28.2792 30.855 29.4294 29.4827 29.4294Z" fill="#FFE179"/>
<path d="M29.6518 22.7907C29.5634 22.6844 29.4043 22.6844 29.3159 22.7907C29.1642 22.973 28.9238 23.2693 28.6543 23.6273C29.3781 24.5888 30.3133 25.9985 30.3133 26.8654C30.3133 27.9796 29.6198 28.9296 28.6543 29.2824C28.914 29.3773 29.1931 29.4294 29.4839 29.4294C30.8561 29.4294 31.9725 28.2792 31.9725 26.8654C31.9725 25.6758 30.2107 23.4627 29.6518 22.7907Z" fill="#FBD268"/>
<path d="M29.4838 27.7211C29.942 27.7211 30.3134 27.3384 30.3134 26.8664C30.3134 26.3944 29.942 26.0117 29.4838 26.0117C29.0257 26.0117 28.6543 26.3944 28.6543 26.8664C28.6543 27.3384 29.0257 27.7211 29.4838 27.7211Z" fill="#F58A97"/>
<path d="M29.4831 26.0117C29.3318 26.0117 29.1904 26.0541 29.0684 26.127C29.316 26.2748 29.4831 26.5502 29.4831 26.8664C29.4831 27.1826 29.316 27.4579 29.0684 27.6058C29.1905 27.6787 29.3318 27.721 29.4831 27.721C29.9412 27.721 30.3127 27.3384 30.3127 26.8664C30.3127 26.3944 29.9413 26.0117 29.4831 26.0117Z" fill="#F07281"/>
<path d="M29.4814 20.9464C29.9727 20.9464 30.371 20.5361 30.371 20.0299C30.371 19.5236 29.9727 19.1133 29.4814 19.1133C28.9901 19.1133 28.5918 19.5236 28.5918 20.0299C28.5918 20.5361 28.9901 20.9464 29.4814 20.9464Z" fill="#F58A97"/>
<path d="M29.4831 19.1133C29.3332 19.1133 29.1923 19.1519 29.0684 19.2193C29.3506 19.373 29.5432 19.6781 29.5432 20.0299C29.5432 20.3816 29.3506 20.6868 29.0684 20.8404C29.1923 20.9078 29.3332 20.9464 29.4831 20.9464C29.9744 20.9464 30.3727 20.5361 30.3727 20.0299C30.3727 19.5237 29.9745 19.1133 29.4831 19.1133Z" fill="#F07281"/>
<path d="M19.5261 24.2652C19.297 24.2652 19.1113 24.0739 19.1113 23.8378V20.0289C19.1113 19.7928 19.297 19.6016 19.5261 19.6016C19.7551 19.6016 19.9408 19.7929 19.9408 20.0289V23.8378C19.9408 24.0739 19.7551 24.2652 19.5261 24.2652Z" fill="#FFF8BF"/>
<path d="M19.5257 29.4294C18.1535 29.4294 17.0371 28.2792 17.0371 26.8654C17.0371 25.6758 18.7989 23.4628 19.3577 22.7907C19.4462 22.6844 19.6053 22.6844 19.6937 22.7907C20.2526 23.4628 22.0143 25.6758 22.0143 26.8654C22.0143 28.2792 20.8979 29.4294 19.5257 29.4294Z" fill="#FFE179"/>
<path d="M19.6948 22.7907C19.6064 22.6844 19.4473 22.6844 19.3588 22.7907C19.2072 22.973 18.9668 23.2693 18.6973 23.6273C19.4211 24.5888 20.3563 25.9985 20.3563 26.8654C20.3563 27.9796 19.6627 28.9296 18.6973 29.2824C18.9569 29.3773 19.236 29.4294 19.5268 29.4294C20.899 29.4294 22.0154 28.2792 22.0154 26.8654C22.0154 25.6758 20.2536 23.4627 19.6948 22.7907Z" fill="#FBD268"/>
<path d="M19.5268 27.7211C19.985 27.7211 20.3564 27.3384 20.3564 26.8664C20.3564 26.3944 19.985 26.0117 19.5268 26.0117C19.0687 26.0117 18.6973 26.3944 18.6973 26.8664C18.6973 27.3384 19.0687 27.7211 19.5268 27.7211Z" fill="#F58A97"/>
<path d="M19.5261 26.0117C19.3748 26.0117 19.2334 26.0541 19.1113 26.127C19.359 26.2748 19.5261 26.5502 19.5261 26.8664C19.5261 27.1826 19.359 27.4579 19.1113 27.6058C19.2335 27.6787 19.3748 27.721 19.5261 27.721C19.9842 27.721 20.3556 27.3384 20.3556 26.8664C20.3556 26.3944 19.9842 26.0117 19.5261 26.0117Z" fill="#F07281"/>
<path d="M19.5263 20.9464C20.0177 20.9464 20.416 20.5361 20.416 20.0299C20.416 19.5236 20.0177 19.1133 19.5263 19.1133C19.035 19.1133 18.6367 19.5236 18.6367 20.0299C18.6367 20.5361 19.035 20.9464 19.5263 20.9464Z" fill="#F58A97"/>
<path d="M19.5261 19.1133C19.3762 19.1133 19.2352 19.1519 19.1113 19.2193C19.3936 19.373 19.5862 19.6781 19.5862 20.0299C19.5862 20.3816 19.3936 20.6868 19.1113 20.8404C19.2352 20.9078 19.3762 20.9464 19.5261 20.9464C20.0174 20.9464 20.4157 20.5361 20.4157 20.0299C20.4157 19.5237 20.0174 19.1133 19.5261 19.1133Z" fill="#F07281"/>
<path d="M33.3653 39.3328H15.6448C15.3394 39.3328 15.0918 39.0777 15.0918 38.763V36.4839C15.0918 36.1691 15.3394 35.9141 15.6448 35.9141H33.3653C33.6707 35.9141 33.9183 36.1691 33.9183 36.4839V38.763C33.9183 39.0777 33.6707 39.3328 33.3653 39.3328Z" fill="#FFE179"/>
<path d="M33.3641 35.9141H31.7051C32.0105 35.9141 32.2581 36.1691 32.2581 36.4839V38.763C32.2581 39.0777 32.0105 39.3328 31.7051 39.3328H33.3641C33.6696 39.3328 33.9172 39.0777 33.9172 38.763V36.4839C33.9172 36.1691 33.6695 35.9141 33.3641 35.9141Z" fill="#FBD268"/>
<path d="M26.8676 38.0539H22.1433C21.9142 38.0539 21.7285 37.8625 21.7285 37.6265C21.7285 37.3905 21.9142 37.1992 22.1433 37.1992H26.8676C27.0966 37.1992 27.2823 37.3905 27.2823 37.6265C27.2823 37.8625 27.0966 38.0539 26.8676 38.0539Z" fill="#FFF8BF"/>
</svg>
