<svg width="49" height="48" viewBox="0 0 49 48" fill="none" xmlns="http://www.w3.org/2000/svg">
<circle cx="24.5059" cy="24" r="24" fill="#F1F9FF"/>
<g clip-path="url(#clip0_9051_573)">
<path d="M22.1438 13.3334C21.6925 12.9228 21.4402 12.3376 21.4398 11.7276L21.4395 11.0352C21.4395 9.90252 20.5213 8.98438 19.3887 8.98438C18.256 8.98438 17.3379 9.90252 17.3379 11.0352L17.3375 11.7276C17.3372 12.3376 17.0848 12.9228 16.6336 13.3334C15.7879 14.1029 15.2871 15.2041 15.2871 16.3672V17.1875H23.4902V16.3672C23.4902 15.2041 22.9894 14.1029 22.1438 13.3334Z" fill="#E7E7E7"/>
<path d="M22.1438 13.3334C21.6925 12.9228 21.4402 12.3376 21.4398 11.7276L21.4395 11.0352C21.4395 9.90252 20.5213 8.98438 19.3887 8.98438V17.1875H23.4902V16.3672C23.4902 15.2041 22.9894 14.1029 22.1438 13.3334Z" fill="#CDD9DB"/>
<path d="M23.2168 35.7812H15.5605C13.902 35.7812 12.5527 34.4319 12.5527 32.7734V24.4779C12.5527 22.2244 13.7531 20.1044 15.6854 18.945L15.8802 18.8281H22.8971L23.092 18.945C25.0242 20.1044 26.2246 22.2244 26.2246 24.4779V32.7734C26.2246 34.4319 24.8753 35.7812 23.2168 35.7812Z" fill="#91BEFF"/>
<path d="M23.0919 18.945L22.8971 18.8281H19.3887V35.7812H23.2168C24.8753 35.7812 26.2246 34.4319 26.2246 32.7734V24.4779C26.2246 22.2244 25.0242 20.1044 23.0919 18.945Z" fill="#589AFF"/>
<path d="M23.2168 19.9219H15.5605C14.5051 19.9219 13.6465 19.0632 13.6465 18.0078C13.6465 16.9524 14.5051 16.0938 15.5605 16.0938H23.2168C24.2722 16.0938 25.1309 16.9524 25.1309 18.0078C25.1309 19.0632 24.2722 19.9219 23.2168 19.9219Z" fill="#FFADF5"/>
<path d="M23.2168 16.0938H19.3887V19.9219H23.2168C24.2722 19.9219 25.1309 19.0632 25.1309 18.0078C25.1309 16.9524 24.2722 16.0938 23.2168 16.0938Z" fill="#FF62FF"/>
<path d="M15.5605 32.5H12.5527V30.8594H15.5605C16.0136 30.8594 16.3809 31.2267 16.3809 31.6797C16.3809 32.1327 16.0136 32.5 15.5605 32.5Z" fill="#F1F4F6"/>
<path d="M15.5605 29.2188H12.5527V27.5781H15.5605C16.0136 27.5781 16.3809 27.9454 16.3809 28.3984C16.3809 28.8515 16.0136 29.2188 15.5605 29.2188Z" fill="#F1F4F6"/>
<path d="M15.5605 25.9375H12.5527V24.2969H15.5605C16.0136 24.2969 16.3809 24.6642 16.3809 25.1172C16.3809 25.5702 16.0136 25.9375 15.5605 25.9375Z" fill="#F1F4F6"/>
<path d="M36.452 25.3906H35.7637C35.5237 25.3906 35.2957 25.2855 35.1399 25.103C34.984 24.9205 34.9159 24.6789 34.9535 24.4419L35.4737 21.1606C35.5368 20.7621 35.8804 20.4688 36.2839 20.4688H39.7333C40.1863 20.4688 40.5536 20.836 40.5536 21.2891C40.5536 23.5507 38.7136 25.3906 36.452 25.3906Z" fill="#EC8600"/>
<path d="M22.9864 26.2629C22.1472 25.8844 21.3444 25.3097 20.6456 24.5584C20.4159 24.3115 20.0586 24.2302 19.7448 24.3537C19.4309 24.477 19.2246 24.7799 19.2246 25.1171V29.4921C19.2246 32.9599 22.0459 35.7812 25.5137 35.7812H31.3426C32.8589 35.7812 34.3079 35.2181 35.4226 34.1956C36.5617 33.1507 37.2171 31.7447 37.2681 30.2366C37.3054 29.1321 37.0276 28.0499 36.4647 27.1069C36.0515 26.4147 36.0377 25.607 36.4296 25.0491C37.0053 24.2299 37.2958 23.2655 37.2698 22.2603C37.2064 19.8027 35.1544 17.7726 32.6957 17.7348C31.4396 17.7173 30.2557 18.1899 29.3615 19.0705C28.4672 19.9513 27.9746 21.1276 27.9746 22.3827C27.9746 23.391 28.2931 24.3481 28.8831 25.1428L27.7559 29.6562L22.9864 26.2629Z" fill="#FAD964"/>
<path d="M36.4297 25.0491C37.0053 24.2299 37.2959 23.2655 37.2699 22.2603C37.2064 19.8027 35.1545 17.7726 32.6958 17.7348C31.673 17.7206 30.6983 18.0314 29.8887 18.6225V35.7811H31.3426C32.8589 35.7811 34.3079 35.218 35.4226 34.1955C36.5617 33.1507 37.2171 31.7447 37.2681 30.2365C37.3054 29.132 37.0276 28.0498 36.4647 27.1069C36.0515 26.4147 36.0377 25.607 36.4297 25.0491Z" fill="#FFCA00"/>
<path d="M33.4434 22.6562C33.8964 22.6562 34.2637 22.289 34.2637 21.8359C34.2637 21.3829 33.8964 21.0156 33.4434 21.0156C32.9903 21.0156 32.623 21.3829 32.623 21.8359C32.623 22.289 32.9903 22.6562 33.4434 22.6562Z" fill="#595E63"/>
<path d="M28.8836 25.144C28.4222 25.6676 27.7639 26.2204 26.8813 26.5325C25.6611 26.9639 24.2807 26.8478 22.9869 26.2642C22.4103 26.9793 22.2602 27.9516 22.6052 28.803C22.8645 29.4429 23.2235 30.1137 23.7189 30.7085C24.721 31.9118 26.0663 32.5356 27.6402 32.5356C27.8685 32.5356 28.1017 32.5225 28.3391 32.4961C30.257 32.283 31.4977 31.5583 32.0268 30.342C32.4769 29.3075 32.36 28.0131 31.6796 26.4949C31.6592 26.4493 31.6386 26.4043 31.6178 26.3598C31.1381 25.3321 29.9702 24.8188 28.8836 25.144Z" fill="#FFCA00"/>
<path d="M31.6172 26.3571C31.2854 25.6462 30.6243 25.1817 29.8887 25.0703V32.1608C30.9401 31.7977 31.6569 31.1885 32.0263 30.3393C32.4763 29.3048 32.3595 28.0104 31.679 26.4921C31.6586 26.4466 31.638 26.4016 31.6172 26.3571Z" fill="#FFCB00"/>
</g>
<defs>
<clipPath id="clip0_9051_573">
<rect width="28" height="28" fill="white" transform="translate(12.5527 8.38281)"/>
</clipPath>
</defs>
</svg>
