<svg width="49" height="48" viewBox="0 0 49 48" fill="none" xmlns="http://www.w3.org/2000/svg">
<circle cx="24.5059" cy="24" r="24" fill="#FFF1F3"/>
<g clip-path="url(#clip0_9051_661)">
<path d="M33.4835 36.3015H15.6859L15.209 35.8468L16.0431 15.8283C16.053 15.5902 16.2489 15.4023 16.4871 15.4023H32.0574L32.5809 15.9905L33.4835 36.3015Z" fill="#FF5F7A"/>
<path d="M28.9505 17.6233C28.7049 17.6233 28.5061 17.4245 28.5061 17.1788V13.6233C28.5061 11.4176 26.7118 9.62327 24.5061 9.62327C22.3004 9.62327 20.5061 11.4176 20.5061 13.6233V17.1788C20.5061 17.4245 20.3073 17.6233 20.0616 17.6233C19.816 17.6233 19.6172 17.4245 19.6172 17.1788V13.6233C19.6172 10.9275 21.8103 8.73438 24.5061 8.73438C27.2019 8.73438 29.395 10.9275 29.395 13.6233V17.1788C29.395 17.4245 29.1962 17.6233 28.9505 17.6233Z" fill="#008CDF"/>
<path d="M33.8199 36.2727L32.968 15.8283C32.9581 15.5903 32.7622 15.4023 32.524 15.4023H32.058L32.8738 34.9208C32.8949 35.4258 32.4911 35.8468 31.9857 35.8468H15.2095L15.1918 36.2728C15.1813 36.5253 15.3831 36.7357 15.6359 36.7357H33.3758C33.6285 36.7357 33.8304 36.5252 33.8199 36.2727Z" fill="#FB4455"/>
<path d="M28.1721 24.387C27.3435 23.5585 26.0001 23.5585 25.1715 24.387L24.7035 24.8551C24.5919 24.9667 24.4109 24.9667 24.2993 24.8551L23.8388 24.3945C23.0102 23.566 21.6668 23.566 20.8382 24.3945C20.0097 25.2231 20.0097 26.5665 20.8382 27.3951L24.2996 30.8565C24.4112 30.968 24.5922 30.968 24.7038 30.8565L28.172 27.3876C29.0006 26.559 29.0006 25.2157 28.1721 24.387Z" fill="#FFF5F5"/>
<path d="M21.9481 27.3949C21.1195 26.5663 21.1195 25.223 21.9481 24.3944C22.2199 24.1226 22.5472 23.9405 22.8934 23.8471C22.1841 23.6555 21.395 23.8376 20.8382 24.3944C20.0097 25.2229 20.0097 26.5663 20.8382 27.3949L24.2996 30.8563C24.4112 30.9679 24.5922 30.9679 24.7038 30.8563L25.0566 30.5034L21.9481 27.3949Z" fill="#DCE6EB"/>
</g>
<defs>
<clipPath id="clip0_9051_661">
<rect width="28" height="28" fill="white" transform="translate(10.5059 8.73438)"/>
</clipPath>
</defs>
</svg>
