<svg width="49" height="48" viewBox="0 0 49 48" fill="none" xmlns="http://www.w3.org/2000/svg">
<circle cx="24.5059" cy="24" r="24" fill="#FFF7F1"/>
<path fill-rule="evenodd" clip-rule="evenodd" d="M25.8847 15.546C25.758 16.9395 25.5607 19.1085 25.4212 20.6393C25.3612 21.3045 25.599 21.9622 26.0715 22.434C26.5432 22.9065 27.201 23.1442 27.8662 23.0842C29.397 22.9447 31.566 22.7475 32.9595 22.6208C34.1182 22.5158 35.0055 21.5438 35.0055 20.3805C35.0055 19.071 35.0055 17.1015 35.0055 15.75C35.0055 15.153 34.7685 14.5807 34.3462 14.1592C33.9247 13.737 33.3525 13.5 32.7555 13.5C31.404 13.5 29.4345 13.5 28.125 13.5C26.9617 13.5 25.9897 14.3872 25.8847 15.546Z" fill="#FF730A"/>
<path fill-rule="evenodd" clip-rule="evenodd" d="M32.9599 25.3792C31.5664 25.2525 29.3974 25.0553 27.8666 24.9158C27.2014 24.8558 26.5436 25.0935 26.0719 25.566C25.5994 26.0378 25.3616 26.6955 25.4216 27.3607C25.5611 28.8915 25.7584 31.0605 25.8851 32.454C25.9901 33.6128 26.9621 34.5 28.1254 34.5H32.7559C33.3529 34.5 33.9251 34.263 34.3466 33.8408C34.7689 33.4193 35.0059 32.847 35.0059 32.25C35.0059 30.8985 35.0059 28.929 35.0059 27.6195C35.0059 26.4562 34.1186 25.4842 32.9599 25.3792ZM23.1266 32.454C23.2534 31.0605 23.4506 28.8915 23.5901 27.3607C23.6501 26.6955 23.4124 26.0378 22.9399 25.566C22.4681 25.0935 21.8104 24.8558 21.1451 24.9158C19.6144 25.0553 17.4454 25.2525 16.0519 25.3792C14.8931 25.4842 14.0059 26.4562 14.0059 27.6195V32.25C14.0059 32.847 14.2429 33.4193 14.6651 33.8408C15.0866 34.263 15.6589 34.5 16.2559 34.5H20.8864C22.0496 34.5 23.0216 33.6128 23.1266 32.454ZM23.1266 15.546C23.0216 14.3872 22.0496 13.5 20.8864 13.5C19.5769 13.5 17.6074 13.5 16.2559 13.5C15.6589 13.5 15.0866 13.737 14.6651 14.1592C14.2429 14.5807 14.0059 15.153 14.0059 15.75V20.3805C14.0059 21.5438 14.8931 22.5158 16.0519 22.6208C17.4454 22.7475 19.6144 22.9447 21.1451 23.0842C21.8104 23.1442 22.4681 22.9065 22.9399 22.434C23.4124 21.9622 23.6501 21.3045 23.5901 20.6393C23.4506 19.1085 23.2534 16.9395 23.1266 15.546Z" fill="#FFA008"/>
</svg>
