<svg width="49" height="48" viewBox="0 0 49 48" fill="none" xmlns="http://www.w3.org/2000/svg">
<circle cx="24.5059" cy="24" r="24" fill="#EFFFF4"/>
<path d="M11.9254 26.5671L11.0441 30.9639C8.15486 30.2926 6.83789 29.1431 6.83789 29.1431L8.12844 26.0352L11.3037 26.1899L11.9254 26.5671Z" fill="#9DCAE0"/>
<path d="M12.399 20.2714C12.2097 20.7616 12.0439 21.2999 11.9148 21.8629C10.1635 21.349 8.88479 21.0543 8.8457 21.0454C9.06812 20.4496 9.3059 19.867 9.53479 19.3359L12.399 20.2714Z" fill="#0E708E"/>
<path d="M20.7851 18.7802C19.6598 17.6549 19.5706 16.7968 20.3831 15.5062C21.196 14.2154 23.7579 16.1516 23.7579 16.1516V23.3889" fill="#FEE372"/>
<path d="M41.4965 27.6608C41.4965 29.8596 38.4846 31.4373 34.8515 31.4373H15.4426C13.6964 31.4373 12.2363 31.2413 11.0441 30.9639C8.15486 30.2926 6.83789 29.1431 6.83789 29.1431L8.12844 26.0352L11.3037 26.1899L41.4965 27.6608Z" fill="#CCE6F6"/>
<path d="M41.4962 27.664C41.4962 27.664 37.9591 28.9546 33.1784 28.9546C29.7014 28.9546 18.0306 27.4117 11.9248 26.57C9.63516 26.2554 8.12812 26.0381 8.12812 26.0381C7.21177 24.7696 9.02237 20.4116 10.0379 18.2069C10.5742 17.0441 11.6666 16.2165 12.9388 16.0682C13.0569 16.0542 13.1744 16.0469 13.2909 16.0469C13.9322 16.0469 14.3445 17.1166 14.9616 18.1511C15.5398 19.1224 16.2977 20.0625 17.5933 20.0625C20.2704 20.0625 23.7563 16.1526 23.7563 16.1526C30.6029 20.843 35.9032 22.931 35.9032 22.931C35.9032 22.931 40.3251 22.9553 41.4008 24.0309C42.4765 25.1064 42.3546 27.0903 41.4962 27.664Z" fill="#FB6572"/>
<path d="M14.9618 18.1511C13.4906 16.3008 10.6857 22.6698 11.9251 26.5703C9.63514 26.2554 8.1281 26.0383 8.1281 26.0383C7.21174 24.7696 9.02262 20.4116 10.0379 18.2069C10.5741 17.0441 11.6668 16.2165 12.939 16.0682C13.0571 16.0544 13.1744 16.0469 13.2911 16.0469C13.9322 16.0469 14.3447 17.1166 14.9618 18.1511Z" fill="#EA394E"/>
<path d="M26.1028 17.7004L19.6082 24.9266C17.4102 23.6212 14.2443 22.5493 11.9148 21.8664C10.1635 21.3526 8.88479 21.0579 8.8457 21.049C9.06812 20.4532 9.3059 19.8706 9.53479 19.3395L12.399 20.275L13.2083 20.5392C14.1408 20.8436 15.1599 20.7239 15.997 20.2127L16.5941 19.848C16.8877 19.983 17.218 20.0623 17.5935 20.0623C20.2706 20.0623 23.7565 16.1523 23.7565 16.1523C24.562 16.7042 25.3466 17.2199 26.1028 17.7004Z" fill="#4695BC"/>
<path d="M41.496 27.6643C41.496 27.6643 37.9581 28.9549 33.1773 28.9549C32.1553 28.9549 30.4253 28.8214 28.3359 28.6122V28.6117C28.3359 27.5036 31.1694 24.891 33.3205 24.7004C33.7036 26.5646 35.9024 26.0387 37.5758 25.4647C39.2486 24.891 41.4 24.0312 41.4 24.0312C42.4754 25.1069 42.3535 27.0906 41.496 27.6643Z" fill="#4695BC"/>
<path d="M33.3207 24.6987C31.1696 24.8893 28.3361 27.502 28.3361 28.61V28.6106C26.4851 28.4243 24.352 28.1784 22.181 27.9128C22.181 26.8396 21.1252 25.827 19.6074 24.926V24.9255L26.102 17.6992C31.7761 21.304 35.9026 22.9296 35.9026 22.9296C36.9063 23.9333 35.4726 24.507 33.3207 24.6987Z" fill="#FEE372"/>
<path d="M26.7713 20.0773C26.6328 20.0773 26.4945 20.0247 26.3888 19.9191C26.1777 19.7077 26.1777 19.3653 26.3888 19.1542L27.7753 17.7677C27.9867 17.5566 28.3291 17.5566 28.5402 17.7677C28.7513 17.9791 28.7515 18.3214 28.5402 18.5325L27.1536 19.9191C27.0482 20.0247 26.9096 20.0773 26.7713 20.0773Z" fill="#FB6572"/>
<path d="M28.5469 21.0734C28.4084 21.0734 28.2701 21.0206 28.1644 20.9149C27.953 20.7038 27.953 20.3614 28.1644 20.15L29.5509 18.7638C29.7623 18.5527 30.1047 18.5527 30.3158 18.7638C30.5268 18.9752 30.5268 19.3175 30.3158 19.5286L28.9292 20.9149C28.8238 21.0206 28.6852 21.0734 28.5469 21.0734Z" fill="#FB6572"/>
<path d="M30.326 22.0697C30.1875 22.0697 30.0492 22.0169 29.9435 21.9112C29.7324 21.7001 29.7324 21.3574 29.9435 21.1463L31.33 19.7601C31.5414 19.5487 31.8838 19.5487 32.0948 19.7601C32.3059 19.9712 32.3062 20.3138 32.0948 20.5249L30.7083 21.9112C30.6029 22.0169 30.4643 22.0697 30.326 22.0697Z" fill="#FB6572"/>
<path d="M32.1033 23.0617C31.965 23.0617 31.8264 23.0091 31.721 22.9034C31.5097 22.6921 31.5097 22.3497 31.721 22.1386L33.1073 20.7521C33.3186 20.541 33.661 20.541 33.8721 20.7521C34.0835 20.9634 34.0835 21.3058 33.8721 21.5169L32.4859 22.9034C32.3802 23.0091 32.2419 23.0617 32.1033 23.0617Z" fill="#FB6572"/>
<path d="M23.7135 18.9258C23.4682 18.9258 23.2439 18.7489 23.1878 18.5101C23.1325 18.2752 23.2452 18.0242 23.4568 17.9089C23.8246 17.7085 24.2996 18.0294 24.2511 18.4451C24.2198 18.7128 23.9839 18.9258 23.7135 18.9258Z" fill="#1E2628"/>
</svg>
