<svg width="161" height="36" viewBox="0 0 161 36" fill="none" xmlns="http://www.w3.org/2000/svg">
<g clip-path="url(#clip0_9051_2237)">
<path d="M39.7458 18.6223C40.3409 19.4227 40.6153 20.4167 40.5149 21.4091C40.4146 22.4015 39.9468 23.3204 39.2035 23.9855C38.1211 24.7728 36.7974 25.1565 35.4618 25.0701H27.9512V9.92415H35.2177C36.5138 9.8474 37.7979 10.2105 38.8619 10.9545C39.2986 11.2968 39.6467 11.739 39.877 12.2438C40.1072 12.7487 40.2129 13.3015 40.185 13.8557C40.2264 14.6379 39.9932 15.4101 39.5259 16.0388C39.0586 16.6675 38.3864 17.1133 37.6255 17.2992C38.4685 17.4706 39.2213 17.9405 39.7458 18.6223ZM32.1539 15.9435H34.285C35.3696 15.9435 35.8739 15.5042 35.8739 14.6312C35.8739 13.7581 35.3316 13.2754 34.285 13.2754H32.1539V15.9435ZM36.1993 20.3522C36.2116 20.1556 36.18 19.9588 36.1068 19.7759C36.0337 19.593 35.9208 19.4286 35.7763 19.2948C35.4353 19.0341 35.0117 18.9051 34.5833 18.9314H32.1539V21.6862H34.605C35.6751 21.6862 36.2101 21.2416 36.2101 20.3522H36.1993Z" fill="white"/>
<path d="M42.3697 15.7689C42.768 14.8852 43.4094 14.1329 44.2189 13.5998C44.9953 13.0975 45.9026 12.8353 46.8272 12.846C47.5806 12.8219 48.3276 12.9918 48.9964 13.3395C49.5754 13.6485 50.0592 14.1098 50.3954 14.6735V12.9978H54.6035V25.0799H50.39V23.4042C50.051 23.9696 49.5633 24.431 48.9801 24.7382C48.311 25.0852 47.5643 25.2551 46.811 25.2317C45.8863 25.2424 44.979 24.9802 44.2026 24.4779C43.3929 23.945 42.7515 23.1927 42.3534 22.3088C41.8854 21.2891 41.6537 20.1769 41.6756 19.0551C41.6509 17.9209 41.8885 16.7963 42.3697 15.7689ZM49.7447 17.2114C49.5423 17.0006 49.2994 16.8329 49.0305 16.7183C48.7617 16.6038 48.4725 16.5447 48.1802 16.5447C47.888 16.5447 47.5988 16.6038 47.3299 16.7183C47.0611 16.8329 46.8182 17.0006 46.6157 17.2114C46.1746 17.7185 45.9505 18.3788 45.9921 19.0497C45.9546 19.72 46.1781 20.3789 46.6157 20.888C46.8129 21.107 47.055 21.2809 47.3254 21.3979C47.5958 21.5149 47.8883 21.5722 48.1829 21.5659C48.4756 21.5714 48.7661 21.5147 49.0353 21.3998C49.3045 21.2848 49.5463 21.1141 49.7447 20.8989C50.191 20.3898 50.4189 19.7255 50.3792 19.0497C50.3966 18.7151 50.3475 18.3804 50.2349 18.0649C50.1223 17.7494 49.9483 17.4593 49.723 17.2114H49.7447Z" fill="white"/>
<path d="M68.2046 14.2994C69.0701 15.3519 69.5076 16.6916 69.4302 18.052V25.1017H65.2166V18.6106C65.2485 18.0192 65.0547 17.4377 64.6744 16.9837C64.4903 16.7876 64.2663 16.6333 64.0174 16.5313C63.7685 16.4293 63.5006 16.382 63.2319 16.3926C62.9563 16.3789 62.681 16.4246 62.4247 16.5266C62.1683 16.6286 61.9369 16.7845 61.746 16.9837C61.3657 17.4377 61.1719 18.0192 61.2038 18.6106V25.08H56.9902V13.0196H61.2038V14.7387C61.591 14.1814 62.1085 13.7272 62.7113 13.4155C63.3812 13.0699 64.1267 12.8966 64.8804 12.9112C65.5029 12.8809 66.1242 12.9899 66.6993 13.23C67.2743 13.4702 67.7886 13.8355 68.2046 14.2994Z" fill="white"/>
<path d="M78.3394 13.3694C78.9238 13.6751 79.4119 14.1369 79.7494 14.7035V13.0278H83.9629V24.958C83.9883 26.0091 83.7771 27.0526 83.3447 28.011C82.9102 28.9201 82.2107 29.6763 81.3382 30.1802C80.2821 30.7606 79.0882 31.0437 77.8839 30.999C76.2888 31.0804 74.7133 30.6177 73.4155 29.6867C72.864 29.2595 72.4085 28.721 72.0787 28.1062C71.7489 27.4915 71.5522 26.8142 71.5013 26.1185H75.6497C75.6891 26.305 75.7668 26.4813 75.8779 26.6363C75.989 26.7912 76.131 26.9214 76.295 27.0187C76.7003 27.2498 77.163 27.3608 77.629 27.3386C79.0751 27.3386 79.7982 26.536 79.7982 24.9309V23.3854C79.4607 23.952 78.9726 24.4138 78.3882 24.7194C77.7292 25.0619 76.9941 25.2316 76.2516 25.2129C75.3253 25.2237 74.4162 24.9615 73.6379 24.4591C72.8281 23.9261 72.1868 23.1738 71.7887 22.29C71.3231 21.2695 71.0915 20.1578 71.1108 19.0363C71.0887 17.9145 71.3204 16.8022 71.7887 15.7826C72.187 14.8989 72.8283 14.1466 73.6379 13.6135C74.4162 13.111 75.3253 12.8489 76.2516 12.8597C76.979 12.8541 77.6964 13.0293 78.3394 13.3694ZM79.1149 17.2196C78.9125 17.0089 78.6695 16.8412 78.4007 16.7266C78.1319 16.6121 77.8426 16.553 77.5504 16.553C77.2582 16.553 76.969 16.6121 76.7001 16.7266C76.4313 16.8412 76.1883 17.0089 75.9859 17.2196C75.5473 17.7282 75.3236 18.3875 75.3623 19.058C75.327 19.728 75.5503 20.386 75.9859 20.8963C76.1883 21.1071 76.4313 21.2748 76.7001 21.3893C76.969 21.5039 77.2582 21.5629 77.5504 21.5629C77.8426 21.5629 78.1319 21.5039 78.4007 21.3893C78.6695 21.2748 78.9125 21.1071 79.1149 20.8963C79.5612 20.3872 79.7891 19.7229 79.7494 19.0471C79.7889 18.3762 79.5607 17.7171 79.1149 17.2142V17.2196Z" fill="white"/>
<path d="M90.59 9.17188V25.0824H86.3711V9.17188H90.59Z" fill="white"/>
<path d="M92.9875 15.7689C93.3859 14.8852 94.0272 14.1329 94.8367 13.5998C95.6131 13.0975 96.5204 12.8353 97.4451 12.846C98.1984 12.8219 98.9454 12.9918 99.6142 13.3395C100.193 13.6485 100.677 14.1098 101.013 14.6735V12.9978H105.227V25.0799H101.013V23.4042C100.68 23.9741 100.196 24.4412 99.6142 24.7545C98.9532 25.097 98.2164 25.2667 97.4722 25.248C96.5475 25.2587 95.6402 24.9965 94.8638 24.4942C94.0541 23.9613 93.4127 23.2089 93.0146 22.3251C92.5466 21.3054 92.3149 20.1932 92.3368 19.0714C92.296 17.9351 92.5187 16.8048 92.9875 15.7689ZM100.363 17.2114C100.16 17.0006 99.9172 16.8329 99.6483 16.7183C99.3795 16.6038 99.0903 16.5447 98.798 16.5447C98.5058 16.5447 98.2166 16.6038 97.9477 16.7183C97.6789 16.8329 97.436 17.0006 97.2336 17.2114C96.7924 17.7185 96.5684 18.3788 96.6099 19.0497C96.5724 19.72 96.7959 20.3789 97.2336 20.888C97.4303 21.1076 97.6722 21.2819 97.9428 21.3989C98.2133 21.5159 98.5061 21.5729 98.8008 21.5659C99.0934 21.5714 99.3839 21.5147 99.6531 21.3998C99.9223 21.2848 100.164 21.1141 100.363 20.8989C100.809 20.3898 101.037 19.7255 100.997 19.0497C101.017 18.7166 100.972 18.3828 100.863 18.0674C100.754 17.7519 100.584 17.461 100.363 17.2114Z" fill="white"/>
<path d="M117.796 10.8785C118.959 11.4825 119.921 12.4137 120.561 13.5573C121.223 14.7624 121.558 16.1197 121.532 17.4943C121.554 18.8612 121.216 20.2097 120.551 21.4042C119.902 22.5537 118.939 23.4944 117.774 24.1156C116.493 24.7874 115.061 25.1232 113.615 25.0917H107.617V9.92406H113.615C115.066 9.89169 116.502 10.2196 117.796 10.8785ZM116.196 20.3521C116.561 19.9754 116.843 19.5265 117.024 19.0344C117.205 18.5422 117.282 18.0177 117.248 17.4943C117.282 16.9652 117.206 16.4348 117.025 15.9364C116.844 15.4381 116.562 14.9826 116.196 14.5985C115.804 14.2457 115.345 13.974 114.847 13.799C114.349 13.624 113.822 13.5493 113.295 13.579H111.831V21.3608H113.295C114.357 21.422 115.401 21.0593 116.196 20.3521Z" fill="white"/>
<path d="M129.358 13.516C130.012 13.1203 130.762 12.9121 131.527 12.9141V17.4096H130.345C129.622 17.3576 128.903 17.5485 128.3 17.9519C128.056 18.1936 127.87 18.4875 127.755 18.8115C127.641 19.1355 127.601 19.4812 127.639 19.8227V25.0883H123.42V13.0225H127.639V15.1483C128.086 14.485 128.672 13.9278 129.358 13.516Z" fill="white"/>
<path d="M153.115 13.3662C153.771 13.0224 154.505 12.8525 155.246 12.8727C156.172 12.8625 157.081 13.1246 157.86 13.6265C158.668 14.1612 159.309 14.913 159.709 15.7956C160.177 16.8152 160.409 17.9275 160.387 19.0493C160.406 20.1708 160.174 21.2825 159.709 22.303C159.309 23.1857 158.668 23.9376 157.86 24.4721C157.081 24.974 156.172 25.2361 155.246 25.2259C154.508 25.246 153.778 25.076 153.125 24.7324C152.548 24.4174 152.062 23.9577 151.715 23.3984V30.8385H147.502V13.0191H151.715V14.6948C152.053 14.1331 152.536 13.6738 153.115 13.3662ZM155.468 17.2055C155.266 16.9964 155.024 16.8302 154.756 16.7166C154.488 16.6031 154.2 16.5445 153.909 16.5445C153.618 16.5445 153.33 16.6031 153.062 16.7166C152.794 16.8302 152.552 16.9964 152.35 17.2055C151.908 17.7085 151.68 18.3644 151.715 19.033C151.679 19.7084 151.906 20.3717 152.35 20.8822C152.548 21.0974 152.79 21.2681 153.059 21.3831C153.329 21.4981 153.619 21.5547 153.912 21.5492C154.204 21.5539 154.495 21.4959 154.763 21.379C155.032 21.262 155.272 21.089 155.468 20.8714C155.912 20.365 156.139 19.7052 156.103 19.033C156.141 18.3622 155.913 17.7033 155.468 17.2001V17.2055Z" fill="white"/>
<path d="M137.41 15.4295C137.52 15.4307 137.628 15.4586 137.725 15.5108L142.486 18.2602C142.581 18.3157 142.659 18.395 142.713 18.4901C142.768 18.5852 142.796 18.6929 142.796 18.8025C142.796 18.912 142.768 19.0197 142.713 19.1148C142.659 19.21 142.581 19.2892 142.486 19.3447L137.725 22.0941C137.63 22.151 137.521 22.1815 137.41 22.1824C137.299 22.1834 137.19 22.1548 137.094 22.0995C136.998 22.0443 136.918 21.9644 136.863 21.8681C136.808 21.7719 136.78 21.6627 136.781 21.5518V16.0802C136.781 15.9974 136.796 15.9153 136.828 15.8386C136.859 15.762 136.905 15.6923 136.964 15.6338C137.022 15.5752 137.092 15.5289 137.169 15.4976C137.245 15.4662 137.328 15.4504 137.41 15.4512M137.41 12.1975C136.387 12.1989 135.407 12.6063 134.684 13.3303C133.961 14.0542 133.555 15.0354 133.555 16.0585V21.5572C133.555 22.2338 133.733 22.8984 134.071 23.4843C134.409 24.0703 134.895 24.5569 135.481 24.8954C136.067 25.2339 136.731 25.4123 137.408 25.4127C138.085 25.4131 138.749 25.2355 139.335 24.8977L144.102 22.1483C144.687 21.809 145.173 21.3218 145.511 20.7355C145.849 20.1493 146.027 19.4845 146.027 18.8079C146.027 18.1312 145.849 17.4665 145.511 16.8802C145.173 16.2939 144.687 15.8067 144.102 15.4674L139.335 12.7181C138.753 12.3699 138.089 12.1828 137.41 12.1758V12.1975Z" fill="white"/>
<path d="M19.6206 19.416L7.75546 12.567C7.00883 12.1314 6.1604 11.9008 5.29602 11.8985C4.43164 11.8961 3.58198 12.1221 2.83298 12.5535C2.08398 12.985 1.46222 13.6066 1.03061 14.3555C0.598997 15.1044 0.372838 15.9541 0.375016 16.8184V30.5219C0.373952 31.3847 0.600361 32.2325 1.03142 32.9799C1.46248 33.7272 2.08295 34.3478 2.83029 34.7789C3.57762 35.2101 4.42541 35.4366 5.28819 35.4356C6.15097 35.4346 6.99825 35.2062 7.74461 34.7734L19.6097 27.9244C20.3549 27.492 20.9735 26.8714 21.4034 26.1248C21.8334 25.3782 22.0597 24.5317 22.0597 23.6702C22.0597 22.8086 21.8334 21.9621 21.4034 21.2155C20.9735 20.4689 20.3549 19.8484 19.6097 19.416H19.6206ZM16.8061 24.7249L6.88239 30.4622C6.69866 30.5717 6.48889 30.6298 6.27503 30.6303C6.11435 30.6303 5.95524 30.5986 5.80685 30.537C5.65846 30.4753 5.52372 30.3849 5.41035 30.2711C5.29698 30.1572 5.20721 30.022 5.14622 29.8734C5.08522 29.7247 5.05419 29.5655 5.0549 29.4048V17.9355C5.05166 17.7204 5.10588 17.5083 5.21197 17.3211C5.31805 17.1339 5.47217 16.9784 5.6584 16.8707C5.84463 16.7629 6.05624 16.7068 6.2714 16.7081C6.48656 16.7094 6.69748 16.7681 6.88239 16.8781L16.8061 22.6154C16.9921 22.7217 17.1467 22.8752 17.2542 23.0604C17.3617 23.2456 17.4183 23.456 17.4183 23.6702C17.4183 23.8843 17.3617 24.0947 17.2542 24.2799C17.1467 24.4652 16.9921 24.6187 16.8061 24.7249Z" fill="white"/>
<path d="M5.04478 10.3204V6.25875C5.04406 6.10046 5.07471 5.94359 5.13495 5.79721C5.1952 5.65082 5.28385 5.51783 5.39578 5.4059C5.50771 5.29396 5.64071 5.20531 5.78709 5.14506C5.93348 5.08482 6.09035 5.05417 6.24864 5.05489C6.45842 5.05498 6.66437 5.11115 6.84515 5.21758L16.6062 10.8627C16.7886 10.9686 16.9399 11.1205 17.0451 11.3032C17.1503 11.4859 17.2057 11.6931 17.2057 11.9039C17.2057 12.1148 17.1503 12.3219 17.0451 12.5046C16.9399 12.6873 16.7886 12.8392 16.6062 12.9451L14.0954 14.393L18.5855 16.9851L18.8458 16.8278C19.7108 16.3293 20.4292 15.6118 20.9287 14.7474C21.4282 13.883 21.6912 12.9022 21.6912 11.9039C21.6912 10.9056 21.4282 9.92484 20.9287 9.06044C20.4292 8.19605 19.7108 7.47849 18.8458 6.97999L9.08477 1.33484C8.22053 0.834599 7.23973 0.570905 6.24116 0.570313C5.24258 0.569722 4.26148 0.832255 3.39664 1.33147C2.53181 1.83069 1.81378 2.54897 1.31486 3.41398C0.815943 4.27899 0.553753 5.26018 0.55469 6.25875V12.3703C1.72097 11.1195 3.33572 10.3823 5.04478 10.3204Z" fill="white"/>
</g>
<defs>
<clipPath id="clip0_9051_2237">
<rect width="160" height="34.8632" fill="white" transform="translate(0.386719 0.570312)"/>
</clipPath>
</defs>
</svg>
